# xmcd CD database file
#
# Track frame offsets:
#	150
#	19245
#	40210
#	61637
#	83717
#	104412
#	125840
#	144805
#	167450
#	189172
#
# Disc length: 2771 seconds
#
# Revision: 0
# Processed by: cddbd v1.5.2PL0 Copyright (c) Steve Scherf et al.
# Submitted via: CDex 1.51
#
DISCID=760ad10a
DTITLE=李翊君 - 翊往情深
DYEAR=1999
DGENRE=Rhythmic Soul
TTITLE0=月亮惹的禍
TTITLE1=孟婆湯
TTITLE2=愛的初體驗
TTITLE3=不讓我的眼淚陪我過夜
TTITLE4=心愛的再會啦
TTITLE5=傷心太平洋
TTITLE6=冰雨
TTITLE7=不甘心不放手
TTITLE8=為什麼你背著我愛別人
TTITLE9=我為你傷心
EXTD=YEAR: 1999
EXTT0=
EXTT1=
EXTT2=
EXTT3=
EXTT4=
EXTT5=
EXTT6=
EXTT7=
EXTT8=
EXTT9=
PLAYORDER=
